HIERARCHY
ROOT mixamorig:Hips
{
	OFFSET -0.000008 104.274872 1.554316
	CHANNELS 6 Xposition Yposition Zposition Xrotation Yrotation Zrotation
	JOINT mixamorig:Spine
	{
		OFFSET -0.000005 10.181595 0.131519
		CHANNELS 6 Xposition Yposition Zposition Xrotation Yrotation Zrotation
		JOINT mixamorig:Spine1
		{
			OFFSET -0.000000 9.893959 -1.470707
			CHANNELS 6 Xposition Yposition Zposition Xrotation Yrotation Zrotation
			JOINT mixamorig:Spine2
			{
				OFFSET -0.000000 9.220757 -1.370641
				CHANNELS 6 Xposition Yposition Zposition Xrotation Yrotation Zrotation
				JOINT mixamorig:Neck
				{
					OFFSET 0.000001 16.740417 -2.049036
					CHANNELS 6 Xposition Yposition Zposition Xrotation Yrotation Zrotation
					JOINT mixamorig:Head
					{
						OFFSET 0.000000 9.617874 1.685006
						CHANNELS 6 Xposition Yposition Zposition Xrotation Yrotation Zrotation
						JOINT mixamorig:HeadTop_End
						{
							OFFSET 0.000002 22.037354 7.501101
							CHANNELS 6 Xposition Yposition Zposition Xrotation Yrotation Zrotation
							End Site
							{
								OFFSET 0.000168 2310.654297 -282.823242
							}
						}
					}
				}
				JOINT mixamorig:RightShoulder
				{
					OFFSET -4.569970 11.014908 -2.160885
					CHANNELS 6 Xposition Yposition Zposition Xrotation Yrotation Zrotation
					JOINT mixamorig:RightArm
					{
						OFFSET -10.592851 -0.524811 -2.232101
						CHANNELS 6 Xposition Yposition Zposition Xrotation Yrotation Zrotation
						JOINT mixamorig:RightForeArm
						{
							OFFSET -27.841511 0.000031 -0.000004
							CHANNELS 6 Xposition Yposition Zposition Xrotation Yrotation Zrotation
							JOINT mixamorig:RightHand
							{
								OFFSET -28.328831 -0.000015 0.000015
								CHANNELS 6 Xposition Yposition Zposition Xrotation Yrotation Zrotation
								JOINT mixamorig:RightHandThumb1
								{
									OFFSET -2.464806 -1.573990 2.681852
									CHANNELS 6 Xposition Yposition Zposition Xrotation Yrotation Zrotation
									JOINT mixamorig:RightHandThumb2
									{
										OFFSET -3.215179 -1.872803 1.924282
										CHANNELS 6 Xposition Yposition Zposition Xrotation Yrotation Zrotation
										JOINT mixamorig:RightHandThumb3
										{
											OFFSET -2.654831 -1.527969 1.512609
											CHANNELS 6 Xposition Yposition Zposition Xrotation Yrotation Zrotation
											JOINT mixamorig:RightHandThumb4
											{
												OFFSET -2.018814 -1.152008 1.108052
												CHANNELS 6 Xposition Yposition Zposition Xrotation Yrotation Zrotation
												End Site
												{
													OFFSET -188.809540 -114.533607 132.431396
												}
											}
										}
									}
								}
								JOINT mixamorig:RightHandIndex1
								{
									OFFSET -9.108284 -0.517868 2.259835
									CHANNELS 6 Xposition Yposition Zposition Xrotation Yrotation Zrotation
									JOINT mixamorig:RightHandIndex2
									{
										OFFSET -3.699989 0.000000 0.001215
										CHANNELS 6 Xposition Yposition Zposition Xrotation Yrotation Zrotation
										JOINT mixamorig:RightHandIndex3
										{
											OFFSET -2.850006 0.000031 -0.000522
											CHANNELS 6 Xposition Yposition Zposition Xrotation Yrotation Zrotation
											JOINT mixamorig:RightHandIndex4
											{
												OFFSET -2.772186 -0.000015 -0.000020
												CHANNELS 6 Xposition Yposition Zposition Xrotation Yrotation Zrotation
												End Site
												{
													OFFSET -277.218445 0.000000 -0.050231
												}
											}
										}
									}
								}
								JOINT mixamorig:RightHandMiddle1
								{
									OFFSET -9.532516 -0.000031 -0.000023
									CHANNELS 6 Xposition Yposition Zposition Xrotation Yrotation Zrotation
									JOINT mixamorig:RightHandMiddle2
									{
										OFFSET -3.700005 -0.000015 0.003713
										CHANNELS 6 Xposition Yposition Zposition Xrotation Yrotation Zrotation
										JOINT mixamorig:RightHandMiddle3
										{
											OFFSET -2.949974 0.000015 -0.002054
											CHANNELS 6 Xposition Yposition Zposition Xrotation Yrotation Zrotation
											JOINT mixamorig:RightHandMiddle4
											{
												OFFSET -2.946640 0.000000 -0.000156
												CHANNELS 6 Xposition Yposition Zposition Xrotation Yrotation Zrotation
												End Site
												{
													OFFSET -294.664337 0.000000 -0.113670
												}
											}
										}
									}
								}
								JOINT mixamorig:RightHandRing1
								{
									OFFSET -9.103600 -0.043076 -1.865134
									CHANNELS 6 Xposition Yposition Zposition Xrotation Yrotation Zrotation
									JOINT mixamorig:RightHandRing2
									{
										OFFSET -3.379288 0.000000 -0.001055
										CHANNELS 6 Xposition Yposition Zposition Xrotation Yrotation Zrotation
										JOINT mixamorig:RightHandRing3
										{
											OFFSET -2.889687 -0.000015 0.000379
											CHANNELS 6 Xposition Yposition Zposition Xrotation Yrotation Zrotation
											JOINT mixamorig:RightHandRing4
											{
												OFFSET -2.638809 -0.000015 0.000941
												CHANNELS 6 Xposition Yposition Zposition Xrotation Yrotation Zrotation
												End Site
												{
													OFFSET -263.880371 0.000000 0.516020
												}
											}
										}
									}
								}
								JOINT mixamorig:RightHandPinky1
								{
									OFFSET -8.076683 -0.486710 -3.806280
									CHANNELS 6 Xposition Yposition Zposition Xrotation Yrotation Zrotation
									JOINT mixamorig:RightHandPinky2
									{
										OFFSET -3.600014 -0.000015 -0.003747
										CHANNELS 6 Xposition Yposition Zposition Xrotation Yrotation Zrotation
										JOINT mixamorig:RightHandPinky3
										{
											OFFSET -2.099983 0.000000 -0.005739
											CHANNELS 6 Xposition Yposition Zposition Xrotation Yrotation Zrotation
											JOINT mixamorig:RightHandPinky4
											{
												OFFSET -2.115768 -0.000031 -0.003680
												CHANNELS 6 Xposition Yposition Zposition Xrotation Yrotation Zrotation
												End Site
												{
													OFFSET -211.577087 0.000000 -0.350686
												}
											}
										}
									}
								}
							}
						}
					}
				}
				JOINT mixamorig:LeftShoulder
				{
					OFFSET 4.570447 11.014725 -2.160855
					CHANNELS 6 Xposition Yposition Zposition Xrotation Yrotation Zrotation
					JOINT mixamorig:LeftArm
					{
						OFFSET 10.592371 -0.524597 -2.232119
						CHANNELS 6 Xposition Yposition Zposition Xrotation Yrotation Zrotation
						JOINT mixamorig:LeftForeArm
						{
							OFFSET 27.841532 -0.000031 0.000026
							CHANNELS 6 Xposition Yposition Zposition Xrotation Yrotation Zrotation
							JOINT mixamorig:LeftHand
							{
								OFFSET 28.328846 -0.000061 0.000022
								CHANNELS 6 Xposition Yposition Zposition Xrotation Yrotation Zrotation
								JOINT mixamorig:LeftHandThumb1
								{
									OFFSET 2.466141 -1.576172 2.681732
									CHANNELS 6 Xposition Yposition Zposition Xrotation Yrotation Zrotation
									JOINT mixamorig:LeftHandThumb2
									{
										OFFSET 3.217812 -1.872070 1.916482
										CHANNELS 6 Xposition Yposition Zposition Xrotation Yrotation Zrotation
										JOINT mixamorig:LeftHandThumb3
										{
											OFFSET 2.656029 -1.528778 1.514513
											CHANNELS 6 Xposition Yposition Zposition Xrotation Yrotation Zrotation
											JOINT mixamorig:LeftHandThumb4
											{
												OFFSET 2.020889 -1.154053 1.115139
												CHANNELS 6 Xposition Yposition Zposition Xrotation Yrotation Zrotation
												End Site
												{
													OFFSET 190.885437 -115.081749 130.048782
												}
											}
										}
									}
								}
								JOINT mixamorig:LeftHandIndex1
								{
									OFFSET 9.109314 -0.518021 2.259871
									CHANNELS 6 Xposition Yposition Zposition Xrotation Yrotation Zrotation
									JOINT mixamorig:LeftHandIndex2
									{
										OFFSET 3.699989 0.000000 -0.000322
										CHANNELS 6 Xposition Yposition Zposition Xrotation Yrotation Zrotation
										JOINT mixamorig:LeftHandIndex3
										{
											OFFSET 2.850006 0.000000 0.000352
											CHANNELS 6 Xposition Yposition Zposition Xrotation Yrotation Zrotation
											JOINT mixamorig:LeftHandIndex4
											{
												OFFSET 2.774864 -0.000031 -0.000027
												CHANNELS 6 Xposition Yposition Zposition Xrotation Yrotation Zrotation
												End Site
												{
													OFFSET 277.486267 0.000000 -0.009857
												}
											}
										}
									}
								}
								JOINT mixamorig:LeftHandMiddle1
								{
									OFFSET 9.533394 0.000061 0.000044
									CHANNELS 6 Xposition Yposition Zposition Xrotation Yrotation Zrotation
									JOINT mixamorig:LeftHandMiddle2
									{
										OFFSET 3.699989 -0.000015 -0.000231
										CHANNELS 6 Xposition Yposition Zposition Xrotation Yrotation Zrotation
										JOINT mixamorig:LeftHandMiddle3
										{
											OFFSET 2.949997 -0.000015 -0.000059
											CHANNELS 6 Xposition Yposition Zposition Xrotation Yrotation Zrotation
											JOINT mixamorig:LeftHandMiddle4
											{
												OFFSET 2.952896 0.000031 0.000063
												CHANNELS 6 Xposition Yposition Zposition Xrotation Yrotation Zrotation
												End Site
												{
													OFFSET 295.289337 0.000000 0.022810
												}
											}
										}
									}
								}
								JOINT mixamorig:LeftHandRing1
								{
									OFFSET 9.104523 -0.042999 -1.865074
									CHANNELS 6 Xposition Yposition Zposition Xrotation Yrotation Zrotation
									JOINT mixamorig:LeftHandRing2
									{
										OFFSET 3.150009 -0.000031 0.000043
										CHANNELS 6 Xposition Yposition Zposition Xrotation Yrotation Zrotation
										JOINT mixamorig:LeftHandRing3
										{
											OFFSET 2.949982 -0.000015 0.000040
											CHANNELS 6 Xposition Yposition Zposition Xrotation Yrotation Zrotation
											JOINT mixamorig:LeftHandRing4
											{
												OFFSET 2.644348 0.000000 0.000057
												CHANNELS 6 Xposition Yposition Zposition Xrotation Yrotation Zrotation
												End Site
												{
													OFFSET 264.434631 0.000000 0.012105
												}
											}
										}
									}
								}
								JOINT mixamorig:LeftHandPinky1
								{
									OFFSET 8.077789 -0.486847 -3.806259
									CHANNELS 6 Xposition Yposition Zposition Xrotation Yrotation Zrotation
									JOINT mixamorig:LeftHandPinky2
									{
										OFFSET 3.599953 0.000031 0.014727
										CHANNELS 6 Xposition Yposition Zposition Xrotation Yrotation Zrotation
										JOINT mixamorig:LeftHandPinky3
										{
											OFFSET 2.100021 0.000015 0.007705
											CHANNELS 6 Xposition Yposition Zposition Xrotation Yrotation Zrotation
											JOINT mixamorig:LeftHandPinky4
											{
												OFFSET 2.125504 0.000031 0.007517
												CHANNELS 6 Xposition Yposition Zposition Xrotation Yrotation Zrotation
												End Site
												{
													OFFSET 212.550781 0.000000 0.625752
												}
											}
										}
									}
								}
							}
						}
					}
				}
			}
		}
	}
	JOINT mixamorig:RightUpLeg
	{
		OFFSET -8.207787 -6.751648 -1.599560
		CHANNELS 6 Xposition Yposition Zposition Xrotation Yrotation Zrotation
		JOINT mixamorig:RightLeg
		{
			OFFSET -0.000002 -44.370117 0.345942
			CHANNELS 6 Xposition Yposition Zposition Xrotation Yrotation Zrotation
			JOINT mixamorig:RightFoot
			{
				OFFSET 0.000003 -44.423679 -3.043532
				CHANNELS 6 Xposition Yposition Zposition Xrotation Yrotation Zrotation
				JOINT mixamorig:RightToeBase
				{
					OFFSET -0.000002 -8.728671 10.710558
					CHANNELS 6 Xposition Yposition Zposition Xrotation Yrotation Zrotation
					JOINT mixamorig:RightToe_End
					{
						OFFSET -0.000001 -0.000679 9.278119
						CHANNELS 6 Xposition Yposition Zposition Xrotation Yrotation Zrotation
						End Site
						{
							OFFSET 0.000000 -0.067690 927.812134
						}
					}
				}
			}
		}
	}
	JOINT mixamorig:LeftUpLeg
	{
		OFFSET 8.207793 -6.751686 -1.599556
		CHANNELS 6 Xposition Yposition Zposition Xrotation Yrotation Zrotation
		JOINT mixamorig:LeftLeg
		{
			OFFSET -0.000004 -44.370014 0.346954
			CHANNELS 6 Xposition Yposition Zposition Xrotation Yrotation Zrotation
			JOINT mixamorig:LeftFoot
			{
				OFFSET -0.000001 -44.423672 -3.044401
				CHANNELS 6 Xposition Yposition Zposition Xrotation Yrotation Zrotation
				JOINT mixamorig:LeftToeBase
				{
					OFFSET -0.000002 -8.728669 10.710558
					CHANNELS 6 Xposition Yposition Zposition Xrotation Yrotation Zrotation
					JOINT mixamorig:LeftToe_End
					{
						OFFSET -0.000003 -0.000679 9.278133
						CHANNELS 6 Xposition Yposition Zposition Xrotation Yrotation Zrotation
						End Site
						{
							OFFSET 0.000000 -0.068021 927.813477
						}
					}
				}
			}
		}
	}
}
MOTION
Frames: 3
Frame Time: 0.033333
0.000006 104.270477 1.554256 0.000010 0.000003 -0.000113 -0.000005 10.181587 0.131522 0.000001 -0.000003 0.000084 -0.000000 9.893967 -1.470711 0.000001 0.000000 -0.000000 -0.000000 9.220802 -1.370642 0.000000 -0.000000 -0.000000 0.000001 16.740433 -2.049030 0.000000 -0.000000 -0.000000 0.000000 9.617859 1.685014 0.000000 0.000000 0.000000 0.000002 22.037384 7.501101 0.000000 -0.000000 0.000000 -4.569968 11.014880 -2.160881 0.000008 0.000001 -0.000038 -10.592761 -0.524821 -2.231724 50.891084 76.387552 -41.045906 -27.841482 0.000059 0.000587 54.982483 111.696105 -74.982773 -28.328829 0.000006 0.000029 -0.000321 -0.000044 0.000007 -2.464443 -1.574115 2.682254 -156.180581 -414.981230 -98.832824 -3.214981 -1.873044 1.924610 62.268588 210.957755 128.039409 -2.654730 -1.528252 1.513040 49.064244 197.692736 126.697304 -2.018835 -1.151998 1.108055 -0.000003 -0.000002 0.000005 -9.108351 -0.517957 2.260281 264.119836 24.035328 26.570826 -3.699991 0.000042 0.001768 44.948379 159.253579 -132.277938 -2.849975 0.000130 0.000087 -149.554751 17.307510 418.435803 -2.772171 -0.000015 -0.000012 -0.000000 -0.000000 0.000000 -9.532398 0.000082 0.000584 202.662873 24.524523 94.602512 -3.700054 0.000351 0.004040 113.452762 6.359771 -9.543609 -2.949969 0.000317 -0.001976 69.569698 -9.379697 6.526308 -2.946621 -0.000015 -0.000151 -0.000001 -0.000003 -0.000001 -9.103397 -0.042997 -1.864519 181.476050 23.100548 172.950485 -3.379178 0.000399 -0.000853 97.860334 -13.808868 15.809530 -2.889517 0.000230 0.000347 42.492021 -31.810127 12.642775 -2.638805 -0.000031 0.000940 -0.000000 -0.000001 -0.000002 -8.076461 -0.486707 -3.805702 -182.397729 13.888094 200.621685 -3.599811 0.000369 -0.003548 102.452148 -24.152882 30.015994 -2.099786 0.000133 -0.005812 29.900154 -33.534713 9.183759 -2.115771 -0.000038 -0.003683 -0.000000 -0.000000 -0.000005 4.570446 11.014691 -2.160851 -0.000018 0.000010 -0.000021 10.592501 -0.524582 -2.232362 41.878075 -72.084314 31.118485 27.841726 -0.000106 -0.000087 55.020203 -108.560850 71.826843 28.328833 -0.000027 0.000017 0.000021 -0.000089 -0.000000 2.466158 -1.576163 2.681884 29.618258 132.563043 -92.022012 3.217843 -1.871992 1.916537 234.988287 39.280199 61.975941 2.656072 -1.528750 1.514602 46.571163 151.514660 -117.446865 2.020879 -1.154068 1.115143 -0.000002 0.000002 0.000004 9.109246 -0.517821 2.260113 -103.425941 -19.147675 -24.114464 3.699904 0.000219 -0.000070 -107.164316 -19.822141 -26.659719 2.849923 0.000242 0.000585 -107.808245 -18.089790 -24.631752 2.774887 -0.000016 -0.000023 0.000001 -0.000001 -0.000000 9.533196 0.000045 0.000159 -175.461891 -27.667548 198.257770 3.700072 0.000245 -0.000333 -238.636155 -12.725592 22.456614 2.950017 0.000238 -0.000219 -262.356691 -0.521079 0.598514 2.952873 -0.000029 0.000071 -0.000001 -0.000002 0.000000 9.104535 -0.043041 -1.865010 -187.104139 -24.065494 147.535269 3.149973 0.000293 -0.000114 -255.128657 6.684561 -8.682749 2.949900 0.000226 -0.000181 -278.881159 20.607434 -17.687478 2.644326 0.000017 0.000048 0.000002 0.000003 0.000003 8.077744 -0.486880 -3.806180 -184.888672 -19.473696 -204.794056 3.599901 0.000363 0.014533 -248.584844 10.466228 -14.811649 2.099897 0.000218 0.007513 -279.049018 23.252138 -19.733707 2.125499 -0.000016 0.007499 0.000001 -0.000000 -0.000001 -8.207786 -6.751667 -1.599560 -0.077001 -0.000003 0.000080 -0.000002 -44.370110 0.345938 0.153719 -0.000000 -0.000000 0.000000 -44.423679 -3.043532 -0.076700 0.000000 -0.000002 -0.000006 -8.728667 10.710559 -0.000009 -0.000000 -0.000000 -0.000001 -0.000679 9.278123 0.000000 -0.000000 -0.000000 8.207792 -6.751710 -1.599556 -0.074518 -0.000003 0.000081 -0.000002 -44.370014 0.346960 0.148822 0.000002 0.000000 -0.000001 -44.423664 -3.044403 -0.074314 0.000000 -0.000002 -0.000004 -8.728671 10.710558 0.000007 -0.000000 -0.000000 0.000000 -0.000680 9.278137 -0.000000 0.000000 -0.000001 
0.000006 104.270477 1.554256 0.000010 0.000003 -0.000113 -0.000005 10.181587 0.131522 0.000001 -0.000003 0.000084 -0.000000 9.893967 -1.470711 0.000001 0.000000 -0.000000 -0.000000 9.220802 -1.370642 0.000000 -0.000000 -0.000000 0.000001 16.740433 -2.049030 0.000000 -0.000000 -0.000000 0.000000 9.617859 1.685014 0.000000 0.000000 0.000000 0.000002 22.037384 7.501101 0.000000 -0.000000 0.000000 -4.569968 11.014880 -2.160881 0.000008 0.000001 -0.000038 -10.592762 -0.524824 -2.231721 50.702898 76.577137 -41.014487 -27.841488 0.000040 0.000589 55.168630 110.557233 -74.024982 -28.328831 0.000007 0.000016 -0.000322 -0.000044 0.000007 -2.464424 -1.574114 2.682236 -157.182105 -418.296795 -102.094963 -3.214973 -1.873041 1.924611 64.125607 214.374653 127.434282 -2.654672 -1.528237 1.513037 47.727023 201.799578 122.822319 -2.018834 -1.152016 1.108060 -0.000002 -0.000001 0.000002 -9.108342 -0.517938 2.260286 263.388596 23.212487 25.988769 -3.699979 0.000093 0.001807 38.018219 160.512109 -127.027257 -2.849896 0.000198 0.000086 -162.773093 14.719203 440.906907 -2.772159 -0.000013 -0.000038 -0.000002 -0.000005 -0.000002 -9.532406 0.000093 0.000583 204.396730 22.360895 84.874335 -3.700027 0.000360 0.004037 113.363020 4.212743 -6.274614 -2.949930 0.000332 -0.001951 72.027760 -10.887947 7.929251 -2.946612 0.000001 -0.000149 0.000003 -0.000003 0.000001 -9.103376 -0.042982 -1.864522 183.135280 21.467739 163.729388 -3.379171 0.000398 -0.000830 98.149866 -13.695727 15.759466 -2.889521 0.000260 0.000357 45.780473 -30.832580 13.279094 -2.638823 -0.000011 0.000943 -0.000000 -0.000000 -0.000004 -8.076426 -0.486643 -3.805693 -179.468685 11.770053 175.962953 -3.599801 0.000351 -0.003540 102.925412 -24.278485 30.411878 -2.099777 0.000185 -0.005806 34.694561 -33.365990 10.687954 -2.115758 -0.000039 -0.003682 0.000001 -0.000000 -0.000001 4.570446 11.014691 -2.160851 -0.000018 0.000010 -0.000021 10.592500 -0.524567 -2.232360 42.064116 -72.155607 31.301452 27.841734 -0.000086 -0.000094 54.477435 -107.872354 70.511772 28.328833 -0.000043 0.000020 0.000021 -0.000089 -0.000000 2.466140 -1.576174 2.681879 28.917481 128.853363 -88.767884 3.217804 -1.872007 1.916531 235.273133 40.904207 62.715337 2.656083 -1.528747 1.514603 47.016369 151.169107 -117.549181 2.020875 -1.154064 1.115163 -0.000006 -0.000001 0.000006 9.109239 -0.517824 2.260121 -102.472563 -21.455535 -26.544250 3.699860 0.000235 -0.000084 -122.806719 -23.095916 -41.103652 2.849876 0.000293 0.000554 -133.800838 -19.896438 -44.705521 2.774880 -0.000016 -0.000031 0.000001 -0.000002 -0.000000 9.533238 0.000053 0.000151 -178.896001 -25.737073 184.799757 3.700069 0.000238 -0.000344 -241.368394 -12.285357 20.555574 2.950027 0.000217 -0.000208 -263.407775 -1.509110 1.696360 2.952861 -0.000050 0.000077 0.000004 0.000000 -0.000001 9.104564 -0.043016 -1.865027 -190.298195 -22.075265 130.419129 3.149966 0.000297 -0.000146 -259.027520 6.769316 -8.201723 2.949912 0.000215 -0.000171 -282.002610 20.422214 -16.596424 2.644334 0.000005 0.000056 0.000002 0.000001 -0.000000 8.077787 -0.486879 -3.806197 -187.369643 -17.483327 -221.832168 3.599883 0.000312 0.014540 -254.482685 11.831116 -15.098417 2.099915 0.000201 0.007489 -285.826396 23.920250 -18.040611 2.125510 0.000001 0.007510 0.000004 -0.000001 0.000000 -8.207786 -6.751667 -1.599560 -0.077001 -0.000003 0.000080 -0.000002 -44.370110 0.345938 0.153719 -0.000000 -0.000000 0.000000 -44.423679 -3.043532 -0.076700 0.000000 -0.000002 -0.000006 -8.728667 10.710559 -0.000009 -0.000000 -0.000000 -0.000001 -0.000679 9.278123 0.000000 -0.000000 -0.000000 8.207792 -6.751710 -1.599556 -0.074518 -0.000003 0.000081 -0.000002 -44.370014 0.346960 0.148822 0.000002 0.000000 -0.000001 -44.423664 -3.044403 -0.074314 0.000000 -0.000002 -0.000004 -8.728671 10.710558 0.000007 -0.000000 -0.000000 0.000000 -0.000680 9.278137 -0.000000 0.000000 -0.000001 
0.000006 104.270477 1.554256 0.000010 0.000003 -0.000113 -0.000005 10.181587 0.131522 0.000001 -0.000003 0.000084 -0.000000 9.893967 -1.470711 0.000001 0.000000 -0.000000 -0.000000 9.220802 -1.370642 0.000000 -0.000000 -0.000000 0.000001 16.740433 -2.049030 0.000000 -0.000000 -0.000000 0.000000 9.617859 1.685014 0.000000 0.000000 0.000000 0.000002 22.037384 7.501101 0.000000 -0.000000 0.000000 -4.569968 11.014880 -2.160881 0.000008 0.000001 -0.000038 -10.592762 -0.524826 -2.231721 50.052296 76.812451 -40.620429 -27.841488 0.000021 0.000582 55.263580 110.228059 -73.798637 -28.328840 0.000023 0.000033 -0.000323 -0.000044 0.000008 -2.464425 -1.574110 2.682231 -157.048015 -420.551030 -103.431870 -3.214975 -1.873042 1.924610 64.651060 212.306909 128.895778 -2.654714 -1.528237 1.513029 50.336332 198.703781 126.810849 -2.018826 -1.152003 1.108050 -0.000004 0.000003 0.000002 -9.108356 -0.517943 2.260310 258.910478 23.701330 28.628907 -3.699744 0.000150 0.001826 8.750748 159.945245 -46.736099 -2.850069 0.000289 -0.000067 -220.901964 8.260306 338.084365 -2.772161 0.000001 -0.000020 -0.000002 -0.000004 -0.000001 -9.532384 0.000105 0.000584 201.811599 19.842857 84.476551 -3.700026 0.000353 0.004004 110.271164 1.476650 -2.001937 -2.949920 0.000286 -0.002016 60.400592 -12.621427 7.368167 -2.946609 0.000013 -0.000155 -0.000002 -0.000001 0.000000 -9.103368 -0.043014 -1.864522 181.819458 19.202209 169.465271 -3.379178 0.000407 -0.000865 95.882476 -14.079118 15.574346 -2.889531 0.000243 0.000349 42.790046 -29.228456 11.663472 -2.638815 -0.000015 0.000939 -0.000000 -0.000000 -0.000001 -8.076455 -0.486711 -3.805695 -181.469875 10.553175 197.272884 -3.599804 0.000350 -0.003551 100.775104 -24.684179 29.795720 -2.099792 0.000162 -0.005800 30.892327 -32.055529 9.066245 -2.115764 -0.000068 -0.003678 -0.000001 -0.000000 -0.000005 4.570446 11.014691 -2.160851 -0.000018 0.000010 -0.000021 10.592503 -0.524571 -2.232359 41.358083 -72.834774 31.120609 27.841742 -0.000101 -0.000089 54.278584 -107.952328 70.360463 28.328842 -0.000012 0.000025 0.000021 -0.000089 -0.000001 2.466147 -1.576176 2.681873 29.173568 126.698179 -87.563510 3.217822 -1.872017 1.916543 235.085112 40.801631 62.802100 2.656070 -1.528741 1.514603 50.675427 152.443675 -121.156655 2.020902 -1.154068 1.115157 0.000001 -0.000001 0.000004 9.109226 -0.517821 2.260119 -102.042623 -24.885635 -30.499950 3.699766 0.000196 -0.000139 -150.622842 -28.389495 -87.952920 2.849864 0.000003 0.000444 -180.591800 -18.702303 -183.599460 2.774894 -0.000032 -0.000014 -0.000000 -0.000002 0.000000 9.533254 0.000038 0.000150 -179.473766 -25.021187 182.339645 3.700073 0.000236 -0.000345 -245.469404 -10.274183 15.918000 2.950015 0.000187 -0.000239 -271.821885 0.509593 -0.491277 2.952872 -0.000031 0.000063 -0.000001 0.000002 0.000001 9.104599 -0.043015 -1.865021 -190.815514 -21.381393 126.747424 3.149974 0.000284 -0.000140 -262.646373 8.536139 -9.701837 2.949906 0.000193 -0.000179 -287.684235 22.022910 -16.185518 2.644324 0.000042 0.000059 -0.000001 0.000003 0.000000 8.077856 -0.486848 -3.806194 -188.924057 -15.655668 -235.166774 3.599880 0.000328 0.014536 -255.342633 12.674514 -15.961923 2.099895 0.000166 0.007495 -285.885873 24.440329 -18.425521 2.125506 -0.000014 0.007519 -0.000002 -0.000000 -0.000001 -8.207786 -6.751667 -1.599560 -0.077001 -0.000003 0.000080 -0.000002 -44.370110 0.345938 0.153719 -0.000000 -0.000000 0.000000 -44.423679 -3.043532 -0.076700 0.000000 -0.000002 -0.000006 -8.728667 10.710559 -0.000009 -0.000000 -0.000000 -0.000001 -0.000679 9.278123 0.000000 -0.000000 -0.000000 8.207792 -6.751710 -1.599556 -0.074518 -0.000003 0.000081 -0.000002 -44.370014 0.346960 0.148822 0.000002 0.000000 -0.000001 -44.423664 -3.044403 -0.074314 0.000000 -0.000002 -0.000004 -8.728671 10.710558 0.000007 -0.000000 -0.000000 0.000000 -0.000680 9.278137 -0.000000 0.000000 -0.000001 
